<svg width="63" height="9" viewBox="0 0 63 9" fill="none" xmlns="http://www.w3.org/2000/svg">
<path d="M-1.19209e-06 2.61596H1.56V8.57996H-1.19209e-06V2.61596ZM4.332 2.48396C4.7 2.48396 5.04 2.53196 5.352 2.62796C5.664 2.72396 5.936 2.87196 6.168 3.07196C6.4 3.27196 6.58 3.52796 6.708 3.83996C6.836 4.14396 6.9 4.50796 6.9 4.93196V8.57996H5.34V5.20796C5.34 4.70396 5.216 4.33596 4.968 4.10396C4.728 3.86396 4.332 3.74396 3.78 3.74396C3.364 3.74396 2.988 3.82396 2.652 3.98396C2.316 4.14396 2.044 4.34796 1.836 4.59596C1.628 4.83596 1.508 5.08796 1.476 5.35196L1.464 4.73996C1.504 4.45996 1.596 4.18796 1.74 3.92396C1.884 3.65996 2.076 3.41996 2.316 3.20396C2.564 2.97996 2.856 2.80396 3.192 2.67596C3.528 2.54796 3.908 2.48396 4.332 2.48396ZM10.1083 -4.43459e-05V1.36796H8.29631V-4.43459e-05H10.1083ZM8.41631 2.61596H9.97631V8.57996H8.41631V2.61596ZM11.5312 2.61596H13.0912V8.57996H11.5312V2.61596ZM15.8632 2.48396C16.2312 2.48396 16.5712 2.53196 16.8832 2.62796C17.1952 2.72396 17.4672 2.87196 17.6992 3.07196C17.9312 3.27196 18.1112 3.52796 18.2392 3.83996C18.3672 4.14396 18.4312 4.50796 18.4312 4.93196V8.57996H16.8712V5.20796C16.8712 4.70396 16.7472 4.33596 16.4992 4.10396C16.2592 3.86396 15.8632 3.74396 15.3112 3.74396C14.8952 3.74396 14.5192 3.82396 14.1832 3.98396C13.8472 4.14396 13.5752 4.34796 13.3672 4.59596C13.1592 4.83596 13.0392 5.08796 13.0072 5.35196L12.9952 4.73996C13.0352 4.45996 13.1272 4.18796 13.2712 3.92396C13.4152 3.65996 13.6072 3.41996 13.8472 3.20396C14.0952 2.97996 14.3872 2.80396 14.7232 2.67596C15.0592 2.54796 15.4392 2.48396 15.8632 2.48396ZM25.2876 6.59996H26.7996C26.7356 7.00796 26.5636 7.37196 26.2836 7.69196C26.0116 8.01196 25.6396 8.26396 25.1676 8.44796C24.6956 8.63196 24.1196 8.72396 23.4396 8.72396C22.6796 8.72396 22.0076 8.60396 21.4236 8.36396C20.8396 8.11596 20.3836 7.75996 20.0556 7.29596C19.7276 6.83196 19.5636 6.27196 19.5636 5.61596C19.5636 4.95996 19.7236 4.39996 20.0436 3.93596C20.3636 3.46396 20.8076 3.10396 21.3756 2.85596C21.9516 2.60796 22.6236 2.48396 23.3916 2.48396C24.1756 2.48396 24.8276 2.60796 25.3476 2.85596C25.8676 3.10396 26.2516 3.47996 26.4996 3.98396C26.7556 4.47996 26.8636 5.11596 26.8236 5.89196H21.1356C21.1756 6.19596 21.2876 6.47196 21.4716 6.71996C21.6636 6.96796 21.9196 7.16396 22.2396 7.30796C22.5676 7.45196 22.9556 7.52396 23.4036 7.52396C23.8996 7.52396 24.3116 7.43996 24.6396 7.27196C24.9756 7.09596 25.1916 6.87196 25.2876 6.59996ZM23.3196 3.67196C22.7436 3.67196 22.2756 3.79996 21.9156 4.05596C21.5556 4.30396 21.3236 4.61196 21.2196 4.97996H25.2756C25.2356 4.57996 25.0436 4.26396 24.6996 4.03196C24.3636 3.79196 23.9036 3.67196 23.3196 3.67196ZM27.4823 2.61596H32.1143V3.82796H27.4823V2.61596ZM29.0183 0.983956H30.5783V8.57996H29.0183V0.983956ZM38.4594 6.59996H39.9714C39.9074 7.00796 39.7354 7.37196 39.4554 7.69196C39.1834 8.01196 38.8114 8.26396 38.3394 8.44796C37.8674 8.63196 37.2914 8.72396 36.6114 8.72396C35.8514 8.72396 35.1794 8.60396 34.5954 8.36396C34.0114 8.11596 33.5554 7.75996 33.2274 7.29596C32.8994 6.83196 32.7354 6.27196 32.7354 5.61596C32.7354 4.95996 32.8954 4.39996 33.2154 3.93596C33.5354 3.46396 33.9794 3.10396 34.5474 2.85596C35.1234 2.60796 35.7954 2.48396 36.5634 2.48396C37.3474 2.48396 37.9994 2.60796 38.5194 2.85596C39.0394 3.10396 39.4234 3.47996 39.6714 3.98396C39.9274 4.47996 40.0354 5.11596 39.9954 5.89196H34.3074C34.3474 6.19596 34.4594 6.47196 34.6434 6.71996C34.8354 6.96796 35.0914 7.16396 35.4114 7.30796C35.7394 7.45196 36.1274 7.52396 36.5754 7.52396C37.0714 7.52396 37.4834 7.43996 37.8114 7.27196C38.1474 7.09596 38.3634 6.87196 38.4594 6.59996ZM36.4914 3.67196C35.9154 3.67196 35.4474 3.79996 35.0874 4.05596C34.7274 4.30396 34.4954 4.61196 34.3914 4.97996H38.4474C38.4074 4.57996 38.2154 4.26396 37.8714 4.03196C37.5354 3.79196 37.0754 3.67196 36.4914 3.67196ZM41.1562 2.61596H42.7162V8.57996H41.1562V2.61596ZM45.4882 2.48396C45.8562 2.48396 46.1962 2.53196 46.5082 2.62796C46.8202 2.72396 47.0922 2.87196 47.3242 3.07196C47.5562 3.27196 47.7362 3.52796 47.8642 3.83996C47.9922 4.14396 48.0562 4.50796 48.0562 4.93196V8.57996H46.4962V5.20796C46.4962 4.70396 46.3722 4.33596 46.1242 4.10396C45.8842 3.86396 45.4882 3.74396 44.9362 3.74396C44.5202 3.74396 44.1442 3.82396 43.8082 3.98396C43.4722 4.14396 43.2002 4.34796 42.9922 4.59596C42.7842 4.83596 42.6642 5.08796 42.6322 5.35196L42.6202 4.73996C42.6602 4.45996 42.7522 4.18796 42.8962 3.92396C43.0402 3.65996 43.2322 3.41996 43.4722 3.20396C43.7202 2.97996 44.0122 2.80396 44.3482 2.67596C44.6842 2.54796 45.0642 2.48396 45.4882 2.48396ZM49.7166 4.73996H53.7246V5.91596H49.7166V4.73996ZM58.9222 8.72396C58.1702 8.72396 57.5062 8.60396 56.9302 8.36396C56.3622 8.12396 55.9182 7.77596 55.5982 7.31996C55.2782 6.85596 55.1182 6.28796 55.1182 5.61596C55.1182 4.94396 55.2782 4.37596 55.5982 3.91196C55.9182 3.43996 56.3622 3.08396 56.9302 2.84396C57.5062 2.60396 58.1702 2.48396 58.9222 2.48396C59.6742 2.48396 60.3302 2.60396 60.8902 2.84396C61.4582 3.08396 61.9022 3.43996 62.2222 3.91196C62.5422 4.37596 62.7022 4.94396 62.7022 5.61596C62.7022 6.28796 62.5422 6.85596 62.2222 7.31996C61.9022 7.77596 61.4582 8.12396 60.8902 8.36396C60.3302 8.60396 59.6742 8.72396 58.9222 8.72396ZM58.9222 7.52396C59.3382 7.52396 59.7102 7.45196 60.0382 7.30796C60.3742 7.15596 60.6382 6.93996 60.8302 6.65996C61.0222 6.37196 61.1182 6.02396 61.1182 5.61596C61.1182 5.20796 61.0222 4.85996 60.8302 4.57196C60.6382 4.27596 60.3782 4.05196 60.0502 3.89996C59.7222 3.74796 59.3462 3.67196 58.9222 3.67196C58.5062 3.67196 58.1302 3.74796 57.7942 3.89996C57.4582 4.05196 57.1902 4.27196 56.9902 4.55996C56.7982 4.84796 56.7022 5.19996 56.7022 5.61596C56.7022 6.02396 56.7982 6.37196 56.9902 6.65996C57.1822 6.93996 57.4462 7.15596 57.7822 7.30796C58.1182 7.45196 58.4982 7.52396 58.9222 7.52396Z" fill="white"/>
</svg>
